# xmcd
#
# Track frame offsets: 
#        150
#        21023
#        37884
#        51443
#        67657
#        83607
#        97304
#        108684
#        126128
#        136306
#        151023
#        164963
#
# Disc length: 2435 seconds
#
# Revision: 3
# Processed by: cddbd v1.5.2PL0 Copyright (c) Steve Scherf et al.
# Submitted via: ExactAudioCopy v0.99pb5
#
DISCID=9c09810c
DTITLE=Soledad - Yo Sí Quiero A Mi País
DYEAR=1900
DGENRE=Latin
TTITLE0=Yo Sí Quiero A Mi País
TTITLE1=El Bahiano
TTITLE2=Cómo Será
TTITLE3=Mi Consejo
TTITLE4=Luna Mia
TTITLE5=Mi Bien
TTITLE6=Amarraditos
TTITLE7=Corazón Americano
TTITLE8=Un Amigo, Una Flor, Una Estrella
TTITLE9=De La Mano
TTITLE10=El Humahuaqueño
TTITLE11=Popurrí De Candombes
EXTD=
EXTT0=
EXTT1=
EXTT2=
EXTT3=
EXTT4=
EXTT5=
EXTT6=
EXTT7=
EXTT8=
EXTT9=
EXTT10=
EXTT11=
PLAYORDER=
